<svg id="Capa_1" enable-background="new 0 0 512 512" height="512" viewBox="0 0 512 512" width="512" xmlns="http://www.w3.org/2000/svg"><g><path d="m494.5 21.282h-145.667c-3.718 0-7.162 1.174-10 3.159-2.838-1.985-6.282-3.159-10-3.159h-145.666c-3.718 0-7.162 1.174-10 3.159-2.838-1.985-6.282-3.159-10-3.159h-145.667c-9.649 0-17.5 7.851-17.5 17.5v65.773c0 4.142 3.357 7.5 7.5 7.5s7.5-3.358 7.5-7.5v-65.773c0-1.378 1.121-2.5 2.5-2.5h145.667c1.379 0 2.5 1.122 2.5 2.5v401.663c0 1.378-1.121 2.5-2.5 2.5h-145.667c-1.379 0-2.5-1.122-2.5-2.5v-303.204c0-4.142-3.357-7.5-7.5-7.5s-7.5 3.358-7.5 7.5v303.204c0 9.649 7.851 17.5 17.5 17.5h6.945v15.273c0 9.649 7.851 17.5 17.5 17.5h327.155c4.143 0 7.5-3.358 7.5-7.5s-3.357-7.5-7.5-7.5h-327.155c-1.379 0-2.5-1.122-2.5-2.5v-15.273h123.722c3.718 0 7.162-1.174 10-3.159 2.838 1.985 6.282 3.159 10 3.159h145.666c3.718 0 7.162-1.174 10-3.159 2.838 1.985 6.282 3.159 10 3.159h123.233v15.273c0 1.378-1.121 2.5-2.5 2.5h-67.515c-4.143 0-7.5 3.358-7.5 7.5s3.357 7.5 7.5 7.5h67.515c9.649 0 17.5-7.851 17.5-17.5v-15.273h7.434c9.649 0 17.5-7.851 17.5-17.5v-401.663c0-9.649-7.851-17.5-17.5-17.5zm-165.667 421.663h-145.666c-1.379 0-2.5-1.122-2.5-2.5v-401.663c0-1.378 1.121-2.5 2.5-2.5h145.666c1.379 0 2.5 1.122 2.5 2.5v401.663c0 1.379-1.121 2.5-2.5 2.5zm168.167-2.5c0 1.378-1.121 2.5-2.5 2.5h-145.667c-1.379 0-2.5-1.122-2.5-2.5v-401.663c0-1.378 1.121-2.5 2.5-2.5h145.667c1.379 0 2.5 1.122 2.5 2.5z"/><path d="m54.109 177.289c-13.294 0-24.109 10.816-24.109 24.109v76.431c0 13.293 10.815 24.109 24.109 24.109s24.109-10.815 24.109-24.109v-76.431c.001-13.293-10.815-24.109-24.109-24.109zm9.11 100.54c0 5.022-4.087 9.109-9.109 9.109-5.023 0-9.109-4.086-9.109-9.109v-76.431c0-5.023 4.087-9.109 9.109-9.109s9.109 4.086 9.109 9.109z"/><path d="m121.975 337.906h-63.283c-4.143 0-7.5 3.358-7.5 7.5s3.357 7.5 7.5 7.5h63.282c4.143 0 7.5-3.358 7.5-7.5.001-4.142-3.357-7.5-7.499-7.5z"/><path d="m121.975 368.021h-63.283c-4.143 0-7.5 3.358-7.5 7.5s3.357 7.5 7.5 7.5h63.282c4.143 0 7.5-3.358 7.5-7.5.001-4.143-3.357-7.5-7.499-7.5z"/><path d="m121.975 398.136h-63.283c-4.143 0-7.5 3.358-7.5 7.5s3.357 7.5 7.5 7.5h63.282c4.143 0 7.5-3.358 7.5-7.5.001-4.142-3.357-7.5-7.499-7.5z"/><path d="m287.642 337.906h-63.283c-4.143 0-7.5 3.358-7.5 7.5s3.357 7.5 7.5 7.5h63.283c4.143 0 7.5-3.358 7.5-7.5s-3.358-7.5-7.5-7.5z"/><path d="m287.642 368.021h-63.283c-4.143 0-7.5 3.358-7.5 7.5s3.357 7.5 7.5 7.5h63.283c4.143 0 7.5-3.358 7.5-7.5 0-4.143-3.358-7.5-7.5-7.5z"/><path d="m287.642 398.136h-63.283c-4.143 0-7.5 3.358-7.5 7.5s3.357 7.5 7.5 7.5h63.283c4.143 0 7.5-3.358 7.5-7.5s-3.358-7.5-7.5-7.5z"/><path d="m455.588 337.906h-63.283c-4.143 0-7.5 3.358-7.5 7.5s3.357 7.5 7.5 7.5h63.283c4.143 0 7.5-3.358 7.5-7.5s-3.358-7.5-7.5-7.5z"/><path d="m455.588 368.021h-63.283c-4.143 0-7.5 3.358-7.5 7.5s3.357 7.5 7.5 7.5h63.283c4.143 0 7.5-3.358 7.5-7.5 0-4.143-3.358-7.5-7.5-7.5z"/><path d="m455.588 398.136h-63.283c-4.143 0-7.5 3.358-7.5 7.5s3.357 7.5 7.5 7.5h63.283c4.143 0 7.5-3.358 7.5-7.5s-3.358-7.5-7.5-7.5z"/><path d="m409.552 277.829v-76.431c0-13.294-10.815-24.109-24.109-24.109s-24.109 10.815-24.109 24.109v76.431c0 13.293 10.815 24.109 24.109 24.109 13.293 0 24.109-10.815 24.109-24.109zm-33.219 0v-76.431c0-5.023 4.087-9.109 9.109-9.109s9.109 4.086 9.109 9.109v76.431c0 5.022-4.087 9.109-9.109 9.109s-9.109-4.086-9.109-9.109z"/><path d="m243.885 277.829v-76.431c0-13.294-10.815-24.109-24.108-24.109-13.294 0-24.109 10.815-24.109 24.109v21.872c0 4.142 3.357 7.5 7.5 7.5s7.5-3.358 7.5-7.5v-21.872c0-5.023 4.087-9.109 9.109-9.109s9.108 4.086 9.108 9.109v76.431c0 5.022-4.086 9.109-9.108 9.109s-9.109-4.086-9.109-9.109v-21.829c0-4.142-3.357-7.5-7.5-7.5s-7.5 3.358-7.5 7.5v21.829c0 13.293 10.815 24.109 24.109 24.109 13.292 0 24.108-10.815 24.108-24.109z"/></g></svg>